<svg xmlns="http://www.w3.org/2000/svg" viewBox="-20 -20 427 370" width="32" height="32">
<rect x="-20" y="-20" width="427" height="370" fill="#0a0a0a" rx="60"/>
<path fill="#D6FF3D" d="M135 3.7032e-10C172.142 -6.349e-05 194.912 8.16381 222 18.7881C230.661 22.1851 241.5 27.0469 248.691 29.5469C249.609 29.0333 250.545 28.5178 251.5 28C288.389 8.00008 328 8 338 8C348 8 380.3 10 385.5 23C390.7 36 356 47 336 47.5C318.505 47.9374 299.187 47.4028 256.04 34.417C239.562 45.5627 220.5 62.0003 224.5 84.5C228.5 107 252.5 112 278 113V114.5C159 114 91 190.5 92.5 245.5C93.4696 281.053 117.84 290.908 136.843 293.297C132.57 285.961 129.684 277.028 129.5 266C128.958 233.5 157.687 192.515 182.5 175C215.5 151.706 243.5 142 278 142C310.514 142 323 151 329.5 162C335.685 172.466 341.5 203.5 299 247C268.756 277.956 228.5 299.087 149.619 296.401C157.212 311.325 177 331.5 212 329.5C247 327.5 258.5 308.5 259.5 307C260.5 305.5 264.5 307 262.5 310C260.5 313 244 325.5 220.5 329C202.142 331.734 178.5 328.5 164.5 319.5C156.196 314.162 145.605 306.888 138.258 295.593C77.497 288.846 72 246.382 72 233.5C72 213 84.0351 175.151 129.5 145.5C175.5 115.5 239.5 113 248.5 113.5C223.5 111 207 99.4999 205 84.5C203 69.5001 209.221 52.5552 245.5 31.5C232.601 27.3528 222.323 23.1371 209.5 18.7881C197.565 14.7403 170.847 2.09745 135 1.5C103.818 0.980305 67 20.1658 45.5 39.833C24.0001 59.5002 5.4803 87.3038 5 113C4.31505 149.645 28.7495 160.802 46.043 162.417C43.5539 160.049 42 156.707 42 153C42 145.82 47.8203 140 55 140C62.1797 140 68 145.82 68 153C68 160.18 62.1797 166 55 166C54.8319 166 54.6646 165.996 54.498 165.989L54.5 166C17 165 0 137.5 0 109C4.63884e-10 80.5001 17.8457 51.1518 42.5 31.2158C67.5 11.0003 105.983 4.9603e-05 135 3.7032e-10ZM329.5 166C318.5 135.5 248.5 134.5 205 168.5C159.988 203.682 143.5 245.5 143.5 268C143.5 275.74 144.561 285.594 148.5 294.5C199 298 244.79 281.738 278 256C298 240.5 340.68 197 329.5 166ZM381.5 23C378.5 9.5 344.5 7.98842 323.5 10C312.836 11.0215 286.209 15.2067 258.501 32.8037C298.826 45.5076 314.01 48.3127 337.5 46.5C348 45.6897 384.32 35.6904 381.5 23Z"/>
</svg>
